# xmcd
#
# Track frame offsets:
#	150
#	14525
#	26087
#	39320
#	49679
#	60196
#	79792
#	93724
#	109371
#	122774
#	136677
#	149242
#	163382
#	176058
#	190906
#	202349
#	213950
#	223305
#	231789
#	244164
#	257368
#	269759
#	283768
#
# Disc length: 3951 seconds
#
# Revision: 1
# Processed by: cddbd v1.4PL0 Copyright (c) Steve Scherf et al.
# Submitted via: audiograbber 1.80
#
DISCID=6b0f6d17
DTITLE=Salter Brothers - Old and New Testament
DYEAR=1900
DGENRE=
TTITLE0=Abraham
TTITLE1=Daniel
TTITLE2=David
TTITLE3=Eve
TTITLE4=In the Beginning
TTITLE5=Isaiah
TTITLE6=Joseph
TTITLE7=Moses
TTITLE8=Noah
TTITLE9=Sampson
TTITLE10=Solomon
TTITLE11=The Ten Commandments
TTITLE12=Beat the Devil
TTITLE13=How Grat Thou  Art
TTITLE14=Lord is it I?
TTITLE15=The Brave Apostles Twleve
TTITLE16=The King is Coming
TTITLE17=The King of Love
TTITLE18=The Kingdom of Heaven is at Hand
TTITLE19=The Lords Prayer
TTITLE20=The  Teacher
TTITLE21=There's a Man in Here
TTITLE22=Who Do  You Think?
EXTD=Gospel - Salter Brothers
EXTT0=
EXTT1=
EXTT2=
EXTT3=
EXTT4=
EXTT5=
EXTT6=
EXTT7=
EXTT8=
EXTT9=
EXTT10=
EXTT11=
EXTT12=
EXTT13=
EXTT14=
EXTT15=
EXTT16=
EXTT17=
EXTT18=
EXTT19=
EXTT20=
EXTT21=
EXTT22=
PLAYORDER=
